<?xml version="1.0" encoding="utf-8"?>
<!-- Generator: Adobe Illustrator 16.0.0, SVG Export Plug-In . SVG Version: 6.00 Build 0)  -->
<!DOCTYPE svg PUBLIC "-//W3C//DTD SVG 1.1//EN" "http://www.w3.org/Graphics/SVG/1.1/DTD/svg11.dtd">
<svg version="1.1" id="Layer_1" xmlns="http://www.w3.org/2000/svg" xmlns:xlink="http://www.w3.org/1999/xlink" x="0px" y="0px"
	 width="100px" height="100px" viewBox="0 0 100 100" enable-background="new 0 0 100 100" xml:space="preserve">
<g id="XMLID_80_">
	<g id="XMLID_32_">
		<g id="XMLID_84_">
			<g>
				<g id="XMLID_87_">
					<g>
						<path fill="#77220E" d="M65.866,37.906h0.602c-0.187-0.207-0.396-0.433-0.602-0.695c-2.15-2.453-5.903-6.186-8.335-8.335
							c-0.264-0.226-0.51-0.434-0.734-0.621v0.621v7.24c0,0.979,0.811,1.79,1.791,1.79H65.866z M58.588,40.491
							c-2.396,0-4.374-1.981-4.374-4.375v-7.24h-19.74c-0.734,0-1.338,0.604-1.338,1.357V71.58c0,0.754,0.604,1.355,1.338,1.355
							h19.383l-2.282-2.279h14.292h1.715h1.697h2.809h5.241L64.452,83.533l-7.146-7.146h-1.734H34.474
							c-2.619,0-4.789-2.166-4.789-4.807V30.233c0-2.639,2.17-4.807,4.789-4.807h19.928h2.924c0.527,0.357,1.206,0.924,2.091,1.716
							h0.021c0.565,0.49,1.17,1.036,1.886,1.733c0.659,0.642,1.434,1.357,2.282,2.226c0.849,0.866,1.602,1.619,2.263,2.301
							c0.678,0.715,1.225,1.337,1.715,1.865c0.812,0.925,1.338,1.604,1.696,2.13v2.924v12.406h-1.696h-1.715V40.491H58.588z"/>
						<polygon fill="#77220E" points="72.087,64 72.087,68.902 69.277,68.902 67.581,68.902 65.866,68.902 56.703,68.902 56.703,64 
							71.938,64 						"/>
						<polygon fill="#77220E" points="71.938,58.439 71.938,62.343 56.703,62.343 56.552,62.343 56.552,58.439 						"/>
						<polygon fill="#77220E" points="71.938,54.291 71.938,56.818 56.552,56.818 56.552,54.291 67.581,54.291 69.277,54.291 						
							"/>
						<path fill="#77220E" d="M65.866,37.211c0.206,0.263,0.415,0.488,0.602,0.695h-0.602V37.211z"/>
						<path fill="#77220E" d="M56.797,28.876v-0.621c0.227,0.188,0.471,0.396,0.734,0.621H56.797z"/>
					</g>
				</g>
			</g>
		</g>
	</g>
</g>
</svg>
