<?xml version="1.0" encoding="utf-8"?>
<!-- Generator: Adobe Illustrator 16.0.0, SVG Export Plug-In . SVG Version: 6.00 Build 0)  -->
<!DOCTYPE svg PUBLIC "-//W3C//DTD SVG 1.1//EN" "http://www.w3.org/Graphics/SVG/1.1/DTD/svg11.dtd">
<svg version="1.1" id="Layer_1" xmlns="http://www.w3.org/2000/svg" xmlns:xlink="http://www.w3.org/1999/xlink" x="0px" y="0px"
	 width="100px" height="100px" viewBox="0 0 100 100" enable-background="new 0 0 100 100" xml:space="preserve">
<g>
	<g id="XMLID_1_">
		<g>
			<path fill="#358C67" d="M85.09,65.94l0.01,5.529c0,1.601-1.38,2.9-3.08,2.891l-63.399,0.1c-1.7,0.01-3.09-1.28-3.09-2.88
				l-0.01-5.54l18.35-18.25l16.43,12.5l16.38-12.56L85.09,65.94z"/>
			<polygon fill="#358C67" points="85.04,33.68 85.08,59.1 70.57,44.76 			"/>
			<path fill="#358C67" d="M52.36,27.19c-2.26,0.01-4.21,0.36-5.851,1.06c-1.65,0.69-3.01,1.58-4.07,2.68
				c-1.06,1.1-1.85,2.32-2.36,3.67c-0.52,1.36-0.77,2.7-0.77,4.02c0,1.41,0.24,2.64,0.72,3.66c0.48,1.03,1.13,1.87,1.96,2.55
				c0.83,0.68,1.79,1.18,2.89,1.5c1.09,0.33,2.25,0.49,3.48,0.49c0.51,0,1.02-0.02,1.53-0.06c0.52-0.04,1.01-0.09,1.47-0.16
				c0.46-0.07,0.89-0.16,1.29-0.27c0.39-0.11,0.739-0.24,1.02-0.37c-0.09-0.34-0.21-0.69-0.33-1.04c-0.13-0.34-0.26-0.68-0.41-1.01
				l0.33-1.7c0.36,0.08,0.76,0.12,1.19,0.12c1.02-0.02,1.95-0.25,2.78-0.7c0.84-0.45,1.539-1.03,2.14-1.74
				c0.58-0.72,1.04-1.53,1.36-2.43c0.319-0.9,0.489-1.81,0.479-2.74c0-1.27-0.24-2.38-0.71-3.33c-0.46-0.95-1.1-1.72-1.9-2.35
				c-0.81-0.62-1.75-1.08-2.819-1.39C54.71,27.35,53.57,27.2,52.36,27.19z M18.54,24.39l63.4-0.09c1.699-0.01,3.09,1.28,3.09,2.88
				v1.24L50.29,55.03L15.46,28.52v-1.24C15.46,25.68,16.84,24.39,18.54,24.39z"/>
			<path fill="#358C67" d="M52.14,34.2l-1.029,5.62c-0.28,0.07-0.53,0.14-0.76,0.18c-0.24,0.05-0.52,0.07-0.84,0.07
				c-0.52,0-0.93-0.15-1.24-0.45c-0.32-0.3-0.48-0.79-0.48-1.47c0-0.53,0.08-1.04,0.23-1.53c0.15-0.5,0.37-0.92,0.66-1.29
				s0.64-0.67,1.06-0.9c0.4-0.22,0.88-0.33,1.41-0.33c0.17,0,0.34,0,0.489,0.02C51.8,34.13,51.96,34.16,52.14,34.2z"/>
			<path fill="#358C67" d="M44.93,40.31c0.2,0.46,0.46,0.84,0.8,1.15c0.33,0.3,0.73,0.52,1.17,0.66c0.44,0.15,0.92,0.22,1.43,0.22
				c0.79-0.01,1.45-0.09,1.98-0.26c0.52-0.18,1.02-0.37,1.5-0.6c0.37,0.36,0.86,0.6,1.45,0.73l-0.33,1.7
				c-0.569,0.21-1.21,0.36-1.899,0.46c-0.7,0.1-1.47,0.14-2.3,0.15c-0.88,0-1.73-0.11-2.51-0.34c-0.79-0.22-1.48-0.57-2.07-1.05
				c-0.58-0.48-1.05-1.11-1.39-1.86c-0.35-0.76-0.52-1.67-0.52-2.74c0-1.18,0.22-2.31,0.65-3.41c0.44-1.09,1.07-2.06,1.9-2.9
				c0.84-0.84,1.86-1.51,3.08-2.01c1.21-0.5,2.59-0.75,4.16-0.75c2.01-0.01,3.58,0.44,4.689,1.35c1.12,0.91,1.681,2.21,1.681,3.92
				c0,0.61-0.08,1.24-0.23,1.86c-0.16,0.64-0.4,1.21-0.71,1.73s-0.69,0.95-1.15,1.28s-0.989,0.49-1.569,0.49
				c-0.37,0-0.63-0.05-0.79-0.17l1.51-7.57c-0.6-0.21-1.25-0.36-1.94-0.45c-0.689-0.1-1.39-0.15-2.109-0.15
				c-0.94,0-1.81,0.17-2.63,0.52c-0.82,0.34-1.54,0.82-2.16,1.43c-0.62,0.61-1.11,1.34-1.46,2.18c-0.35,0.84-0.54,1.77-0.54,2.78
				C44.63,39.3,44.73,39.85,44.93,40.31z"/>
			<polygon fill="#358C67" points="29.97,44.82 15.51,59.21 15.47,33.78 			"/>
		</g>
		<g>
		</g>
	</g>
</g>
</svg>
