<?xml version="1.0" encoding="utf-8"?>
<!-- Generator: Adobe Illustrator 16.0.0, SVG Export Plug-In . SVG Version: 6.00 Build 0)  -->
<!DOCTYPE svg PUBLIC "-//W3C//DTD SVG 1.1//EN" "http://www.w3.org/Graphics/SVG/1.1/DTD/svg11.dtd">
<svg version="1.1" id="Layer_1" xmlns="http://www.w3.org/2000/svg" xmlns:xlink="http://www.w3.org/1999/xlink" x="0px" y="0px"
	 width="150px" height="150px" viewBox="0 0 150 150" enable-background="new 0 0 150 150" xml:space="preserve">
<g>
	<g id="XMLID_1_">
		<g>
			<path fill="#59325B" d="M136,77.82c0,26.67-17.29,49.3-41.27,57.29c-3.061,0.6-4.141-1.29-4.141-2.9
				c0-1.979,0.07-8.49,0.07-16.57c0-5.63-1.93-9.31-4.101-11.18c13.45-1.5,27.57-6.6,27.57-29.8c0-6.59-2.34-11.98-6.21-16.2
				c0.63-1.53,2.69-7.67-0.59-15.99c0,0-5.07-1.62-16.59,6.2c-4.83-1.34-10-2.01-15.13-2.04c-5.13,0.03-10.3,0.7-15.12,2.04
				c-11.54-7.82-16.61-6.2-16.61-6.2c-3.28,8.32-1.21,14.46-0.58,15.99c-3.86,4.22-6.22,9.61-6.22,16.2
				c0,23.14,14.1,28.32,27.51,29.85c-1.73,1.51-3.29,4.17-3.83,8.07c-3.45,1.55-12.19,4.21-17.58-5.021c0,0-3.19-5.79-9.25-6.22
				c0,0-5.9-0.08-0.42,3.67c0,0,3.96,1.86,6.71,8.84c0,0,3.54,10.771,20.34,7.12c0.03,5.05,0.08,9.811,0.08,11.24
				c0,1.6-1.1,3.47-4.12,2.91c-24-7.99-41.3-30.62-41.3-57.3c0-33.35,27.04-60.39,60.39-60.39S136,44.47,136,77.82z"/>
			<path fill="#3A193A" d="M60.22,115.23c0.09,0.489-0.41,0.979-1.12,1.119c-0.7,0.131-1.35-0.17-1.44-0.649
				c-0.09-0.5,0.42-1,1.12-1.13C59.49,114.45,60.13,114.74,60.22,115.23z"/>
			<path fill="#3A193A" d="M55.62,116.01c0.02,0.5-0.56,0.91-1.28,0.92c-0.72,0.021-1.3-0.38-1.31-0.87c0-0.51,0.57-0.92,1.29-0.93
				C55.04,115.12,55.62,115.52,55.62,116.01z"/>
			<path fill="#3A193A" d="M49.17,116.14c-0.68-0.21-1.13-0.76-0.99-1.239c0.14-0.48,0.83-0.7,1.51-0.49
				c0.69,0.21,1.13,0.76,0.99,1.24C50.54,116.12,49.86,116.34,49.17,116.14z"/>
			<path fill="#3A193A" d="M45.85,112.16c0.53,0.479,0.68,1.18,0.33,1.54c-0.33,0.37-1.03,0.27-1.55-0.23
				c-0.53-0.489-0.67-1.18-0.34-1.54C44.62,111.56,45.33,111.66,45.85,112.16z"/>
			<path fill="#3A193A" d="M42.93,108.89c0.37,0.54,0.37,1.19-0.01,1.45c-0.37,0.26-0.98,0.021-1.35-0.52
				c-0.37-0.54-0.37-1.181,0.01-1.44C41.95,108.12,42.55,108.36,42.93,108.89z"/>
			<path fill="#3A193A" d="M40.37,105.61c0.39,0.42,0.47,0.979,0.17,1.25c-0.29,0.27-0.85,0.149-1.23-0.28
				c-0.4-0.42-0.47-0.98-0.18-1.25C39.43,105.06,39.97,105.19,40.37,105.61z"/>
			<path fill="#3A193A" d="M38.09,104.13c-0.13,0.311-0.6,0.4-1.03,0.19c-0.44-0.2-0.69-0.61-0.54-0.91
				c0.13-0.311,0.6-0.391,1.04-0.19C37.99,103.42,38.24,103.83,38.09,104.13z"/>
		</g>
		<g>
		</g>
	</g>
</g>
</svg>
