<?xml version="1.0" encoding="utf-8"?>
<!-- Generator: Adobe Illustrator 16.0.0, SVG Export Plug-In . SVG Version: 6.00 Build 0)  -->
<!DOCTYPE svg PUBLIC "-//W3C//DTD SVG 1.1//EN" "http://www.w3.org/Graphics/SVG/1.1/DTD/svg11.dtd">
<svg version="1.1" id="Layer_1" xmlns="http://www.w3.org/2000/svg" xmlns:xlink="http://www.w3.org/1999/xlink" x="0px" y="0px"
	 width="150px" height="150px" viewBox="0 0 150 150" enable-background="new 0 0 150 150" xml:space="preserve">
<g id="XMLID_1_">
	<g>
		<path fill="#5EA1BC" d="M147.29,14.38v123.23c0,5.739-4.78,10.39-10.66,10.39H13.92c-5.87,0-10.63-4.66-10.63-10.39V14.38
			C3.29,8.65,8.05,4,13.92,4h122.71C142.51,4,147.29,8.65,147.29,14.38z M126,126.71v-37.7c0-18.5-4-32.73-25.63-32.73
			c-10.39,0-17.351,5.69-20.2,11.1h-0.29v-9.4H59.39v68.73h21.34v-34c0-8.96,1.71-17.64,12.819-17.64
			c10.95,0,11.101,10.25,11.101,18.22v33.42H126z M46,126.71V57.98H24.64v68.73H46z M47.7,36.21c0-6.84-5.55-12.38-12.38-12.38
			c-6.84,0-12.38,5.55-12.39,12.38c0,6.83,5.55,12.38,12.39,12.38C42.15,48.59,47.7,43.04,47.7,36.21z"/>
		<path fill="#FFFFFF" d="M126,89.01v37.7h-21.35V93.29c0-7.97-0.15-18.22-11.101-18.22c-11.109,0-12.819,8.68-12.819,17.64v34
			H59.39V57.98h20.49v9.4h0.29c2.85-5.41,9.811-11.1,20.2-11.1C122,56.28,126,70.51,126,89.01z"/>
		<rect x="24.64" y="57.98" fill="#FFFFFF" width="21.36" height="68.73"/>
		<path fill="#FFFFFF" d="M35.32,23.83c6.83,0,12.38,5.54,12.38,12.38c0,6.83-5.55,12.38-12.38,12.38
			c-6.84,0-12.39-5.55-12.39-12.38C22.94,29.38,28.48,23.83,35.32,23.83z"/>
	</g>
	<g>
	</g>
</g>
</svg>
