<?xml version="1.0" encoding="utf-8"?>
<!-- Generator: Adobe Illustrator 16.0.0, SVG Export Plug-In . SVG Version: 6.00 Build 0)  -->
<!DOCTYPE svg PUBLIC "-//W3C//DTD SVG 1.1//EN" "http://www.w3.org/Graphics/SVG/1.1/DTD/svg11.dtd">
<svg version="1.1" id="Layer_1" xmlns="http://www.w3.org/2000/svg" xmlns:xlink="http://www.w3.org/1999/xlink" x="0px" y="0px"
	 width="100px" height="100px" viewBox="0 0 100 100" enable-background="new 0 0 100 100" xml:space="preserve">
<g id="Captions">
	<rect x="-330" y="-414" width="185" height="99"/>
	<rect x="-138" y="-450" width="100" height="30"/>
	<text transform="matrix(1 0 0 1 -72 -433.5)" font-family="'ArialMT'" font-size="2.4">http://thenounproject.com</text>
	<text transform="matrix(1 0 0 1 -130.834 -438.5)" font-family="'ArialMT'" font-size="6.1578">The Noun Project</text>
	<text transform="matrix(1 0 0 1 -129.7139 -433.7002)" font-family="'ArialMT'" font-size="4">Icon Template</text>
	<text transform="matrix(1 0 0 1 -316.5 -403.5)" font-family="'ArialMT'" font-size="6.1578">Reminders</text>
	<line fill="none" stroke="#FFFFFF" stroke-miterlimit="10" x1="-130" y1="-428.5" x2="-120" y2="-428.5"/>
	<line fill="none" stroke="#FFFFFF" stroke-miterlimit="10" x1="-317" y1="-397.5" x2="-300" y2="-397.5"/>
	<g>
		<g>
			<g>
				<rect x="-308.802" y="-382.682" width="8.721" height="8.642"/>
				<path d="M-302.455-371.688h4.747v-4.703h-4.747V-371.688z M-297.266-371.251h-5.63v-5.579h5.63V-371.251L-297.266-371.251z
					 M-304.221-369.938h8.279v-8.203h-8.279V-369.938L-304.221-369.938z M-295.5-369.5h-9.163v-9.079h9.163V-369.5L-295.5-369.5z"/>
				<polygon points="-304.149,-369.867 -304.292,-370.009 -296.013,-378.213 -295.871,-378.071 				"/>
			</g>
		</g>
	</g>
	<rect x="-317" y="-356" fill="none" width="35" height="32.5"/>
	<text transform="matrix(1 0 0 1 -317 -353.8428)" font-family="'ArialMT'" font-size="3">Strokes</text>
	<text transform="matrix(1 0 0 1 -317 -348.8428)" font-family="'ArialMT'" font-size="2.4">Try to keep strokes at 4px</text>
	<text transform="matrix(1 0 0 1 -317 -343.8428)" font-family="'ArialMT'" font-size="2.4">Minimum stroke weight is 2px</text>
	<text transform="matrix(1 0 0 1 -317 -339.3428)" font-family="'ArialMT'" font-size="2.4">For thicker strokes use even </text>
	<text transform="matrix(1 0 0 1 -317 -336.3428)" font-family="'ArialMT'" font-size="2.4">numbers: 6px, 8px etc.</text>
	<text transform="matrix(1 0 0 1 -317 -331.8428)" font-family="'ArialMT'" font-size="2.4">Remember to expand strokes </text>
	<text transform="matrix(1 0 0 1 -317 -328.8428)" font-family="'ArialMT'" font-size="2.4">before saving as an SVG </text>
	<rect x="-274.5" y="-356" fill="none" width="35" height="32.5"/>
	<text transform="matrix(1 0 0 1 -274.5 -353.8428)" font-family="'ArialMT'" font-size="3">Size</text>
	<text transform="matrix(1 0 0 1 -274.5 -348.8428)" font-family="'ArialMT'" font-size="2.4">Cannot be wider or taller than </text>
	<text transform="matrix(1 0 0 1 -274.5 -345.3428)" font-family="'ArialMT'" font-size="2.4">100px (artboard size)</text>
	<text transform="matrix(1 0 0 1 -274.5 -340.3428)" font-family="'ArialMT'" font-size="2.4">Scale your icon to fill as much of </text>
	<text transform="matrix(1 0 0 1 -274.5 -337.3428)" font-family="'ArialMT'" font-size="2.4">the artboard as possible</text>
	<rect x="-232" y="-356" fill="none" width="35" height="32.5"/>
	<text transform="matrix(1 0 0 1 -232 -353.8428)" font-family="'ArialMT'" font-size="3">Ungroup</text>
	<text transform="matrix(1 0 0 1 -232 -348.8428)" font-family="'ArialMT'" font-size="2.4">If your design has more than one </text>
	<text transform="matrix(1 0 0 1 -232 -345.8428)" font-family="'ArialMT'" font-size="2.4">shape, make sure to ungroup</text>
	<rect x="-188" y="-356" fill="none" width="35" height="32.5"/>
	<text transform="matrix(1 0 0 1 -188 -353.8428)" font-family="'ArialMT'" font-size="3">Save as</text>
	<text transform="matrix(1 0 0 1 -188 -348.8428)" font-family="'ArialMT'" font-size="2.4">Save as .SVG and make sure </text>
	<text transform="matrix(1 0 0 1 -188 -345.8428)" font-family="'ArialMT'" font-size="2.4">“Use Artboards” is checked</text>
	<text transform="matrix(1.0074 0 0 1 -263.542 -383.4063)" font-family="'ArialMT'" font-size="2.5731">100px</text>
	<text transform="matrix(1.0074 0 0 1 -179 -375)" font-family="'ArialMT'" font-size="5.1462">.SVG</text>
	<rect x="-264.514" y="-379.185" width="10.261" height="10.185"/>
	<rect x="-264.477" y="-382.234" width="0.522" height="2.337"/>
	<rect x="-254.812" y="-382.234" width="0.523" height="2.337"/>
	<rect x="-265" y="-381.663" width="11.233" height="0.572"/>
	<g>
		<rect x="-221.805" y="-380.156" width="10.305" height="10.156"/>
		<rect x="-214.809" y="-385.293" width="3.308" height="3.261"/>
	</g>
	<rect x="-316.5" y="-391.5" stroke="#FFFFFF" stroke-miterlimit="10" width="30" height="30"/>
	<rect x="-274.5" y="-391.5" stroke="#FFFFFF" stroke-miterlimit="10" width="30" height="30"/>
	<rect x="-231.5" y="-391.5" stroke="#FFFFFF" stroke-miterlimit="10" width="30" height="30"/>
	<rect x="-187.5" y="-391.5" stroke="#FFFFFF" stroke-miterlimit="10" width="30" height="30"/>
</g>
<g id="Your_Icon">
	<g id="XMLID_1_">
		<g>
			<polygon points="502.33,-120.4 501.94,-112.74 463.65,-59.59 457.57,-58.26 			"/>
			<polygon points="501.49,-104 501.1,-96.35 476.68,-62.45 470.6,-61.12 			"/>
			<polygon points="500.66,-87.62 500.26,-79.95 489.72,-65.32 483.63,-63.98 			"/>
			<polygon points="499.82,-71.22 499.62,-67.49 496.66,-66.84 			"/>
			<path d="M493.61-268.82l4.38,0.79c-0.141,0.76-13.601,75.42-13.971,77.57c-1.149,6.56-6.02,11.97-12.42,13.79
				c-9.25,2.63-18.909-2.75-21.529-12l-19.49-68.56c-2.23-7.82,2.33-15.98,10.14-18.21c7.82-2.22,15.99,2.33,18.21,10.15
				l13.721,48.27c1.72,6.05-1.801,12.36-7.851,14.08c-6.04,1.73-12.359-1.8-14.08-7.84l-11.16-39.27l4.28-1.21L455-212
				c1.05,3.69,4.9,5.84,8.59,4.79c3.68-1.05,5.83-4.91,4.78-8.59l-13.72-48.27c-1.561-5.46-7.261-8.64-12.71-7.09
				c-5.46,1.55-8.641,7.25-7.091,12.71l13.721,48.28l5.77,20.29c1.96,6.88,9.16,10.89,16.05,8.93c4.761-1.35,8.391-5.38,9.24-10.27
				C480.01-193.38,493.05-265.74,493.61-268.82z"/>
			<path d="M470.41-377.85v-1.32c0-0.35-0.3-0.66-0.65-0.66h-4.45v1.98H470.41z M470.42-373.91v-1.32h-5.11v1.98h4.45
				C470.11-373.25,470.41-373.55,470.42-373.91z M469.76-370.62h-11.52c-1.811,0-3.28-1.47-3.28-3.28v-5.27
				c0-1.81,1.47-3.29,3.28-3.29h11.52c1.811,0,3.28,1.48,3.28,3.29v5.27C473.04-372.09,471.57-370.62,469.76-370.62z M462.69-379.83
				h-4.45c-0.36,0-0.66,0.31-0.66,0.66v1.32h5.11V-379.83z M458.24-373.25h4.45v-1.98h-5.11v1.33
				C457.58-373.55,457.88-373.25,458.24-373.25z"/>
			<path d="M435.88-343.92h56.24v-9.1h-56.24V-343.92z M436.53-364.42c-0.351,0-0.65,0.3-0.65,0.66v8.11h56.24v-8.11
				c0-0.36-0.3-0.66-0.66-0.66H436.53z M436.53-332.51h54.93c0.36,0,0.66-0.31,0.66-0.66v-8.12h-56.24v8.12
				C435.88-332.82,436.18-332.51,436.53-332.51z M436.53-329.88H425.02c-1.81,0-3.289-1.48-3.289-3.29v-34.82l-2.011,1.01
				c-1.939,0.98-4.31,0.2-5.3-1.75c-0.979-1.95-0.2-4.33,1.75-5.3L464-398.12l47.83,24.09c1.95,0.97,2.729,3.35,1.75,5.3
				c-0.7,1.37-2.09,2.17-3.53,2.17c-0.6,0-1.21-0.14-1.77-0.42l-2.011-1.01v34.82c0,1.81-1.479,3.29-3.289,3.29H491.47H436.53z
				 M425.02-332.51h8.29c-0.04-0.22-0.06-0.44-0.06-0.66v-30.59c0-1.82,1.47-3.29,3.28-3.29h54.93c1.82,0,3.29,1.47,3.29,3.29v30.59
				c0,0.22-0.01,0.44-0.06,0.66h8.29c0.35,0,0.659-0.31,0.659-0.66v-36.15L464-389.28l-39.64,19.96v36.15
				C424.36-332.82,424.67-332.51,425.02-332.51z"/>
			<path d="M420.69-52.76l50.729-70.42l-6.89,1.46l-43.57,60.48l-0.43,8.36L420.69-52.76z M424.55-51.01l-4.08,0.9l4.25,4.01
				L504.4-62.9l3.21-62.91l-4.32-4.09l-0.48,0.1l-0.05,1.14l-0.21-0.15l-51.92,72.08l-6.09,1.33l52.76-73.23l-6.899,1.45
				L437.59-53.87l-6.09,1.34l52.86-73.38l-6.9,1.46L424.55-51.01z M514-127.1c0,0.05,0,0.11,0,0.16l-3.41,66.79
				c-0.08,1.44-1.1,2.64-2.51,2.94L424.4-39.57c-1.011,0.21-2.07-0.08-2.82-0.8l-6.59-6.23c-0.67-0.63-1.03-1.52-0.99-2.45
				l3.42-66.79c0.07-1.44,1.1-2.64,2.5-2.94l83.68-17.65c1.021-0.21,2.07,0.09,2.82,0.8l6.59,6.23
				C513.65-128.8,514-127.97,514-127.1z M421.35-68.89l37.141-51.56l-6.9,1.45L421.8-77.62L421.35-68.89z M422.18-85.29l23.38-32.43
				l-6.899,1.45l-16.03,22.25L422.18-85.29z M423.03-101.67l9.59-13.33l-6.89,1.46l-2.261,3.13L423.03-101.67z"/>
			<path d="M376-86.04v30.98c0,0.51-0.42,0.94-0.94,0.94H276.94c-0.521,0-0.94-0.43-0.94-0.94v-30.98c0-0.51,0.42-0.94,0.94-0.94
				h43.72c0.52,0,0.939,0.43,0.939,0.94v10.46c0,0.51,0.42,0.94,0.94,0.94h6.92c0.521,0,0.94-0.43,0.94-0.94v-10.46
				c0-0.51,0.43-0.94,0.939-0.94h43.72C375.58-86.98,376-86.55,376-86.04z"/>
			<path d="M376-105.98v14.55c0,0.51-0.42,0.93-0.94,0.93h-43.72c-0.52,0-0.939-0.42-0.939-0.93v-3.11c0-0.51-0.42-0.93-0.94-0.93
				h-6.92c-0.521,0-0.94,0.42-0.94,0.93v3.11c0,0.51-0.43,0.93-0.939,0.93h-43.72c-0.521,0-0.94-0.42-0.94-0.93v-14.55
				c0-0.51,0.42-0.93,0.94-0.93h27.149c0.51,0,0.93-0.43,0.93-0.94v-13.09c0-0.51,0.421-0.94,0.94-0.94h40.08
				c0.51,0,0.93,0.43,0.93,0.94v13.09c0,0.51,0.431,0.94,0.94,0.94h27.149C375.58-106.91,376-106.49,376-105.98z M341.33-107.85
				v-7.44c0-0.52-0.42-0.94-0.94-0.94H311.61c-0.521,0-0.94,0.42-0.94,0.94v7.44c0,0.51,0.42,0.94,0.94,0.94h28.779
				C340.91-106.91,341.33-107.34,341.33-107.85z"/>
			<path d="M374.25-273.37c2.33,2.34,2.33,6.13,0,8.47c-1.38,1.38-3.27,1.93-5.07,1.68l-14.63,14.62l2.61,2.61l12.59,12.59
				l-9.09,0.31l-8.2-8.2l-16.16,16.17l37.181,37.18l0.77,11.06l-42.76-43.44l-0.681,0.69l43.44,42.75l-11.06-0.76L326-214.83
				l-37.19,37.19l-11.05,0.76l43.44-42.75l4.8-4.74l0.76-0.75l4.811-4.72l16.29-16.04l-1.101-1.1l-16.029,16.29l-4.73,4.8
				l-0.76,0.77l-4.73,4.81l-42.75,43.43l0.76-11.05l37.19-37.19l-16.17-16.17l-8.19,8.19l-9.1-0.31l12.59-12.58l2.601-2.61
				l-14.62-14.62c-1.801,0.25-3.681-0.29-5.061-1.68c-2.35-2.34-2.35-6.13,0-8.47c2.33-2.34,6.13-2.34,8.471,0
				c1.38,1.38,1.92,3.27,1.67,5.07l14.619,14.62l2.61-2.61l12.59-12.58l0.311,9.09l-8.2,8.19L326-235.42l16.16-16.16l-8.19-8.2
				l0.311-9.09l12.59,12.58l2.6,2.61l14.63-14.62c-0.25-1.8,0.29-3.69,1.681-5.07C368.11-275.71,371.91-275.71,374.25-273.37z
				 M321.28-230.69l-16.04-16.3l-1.101,1.1l16.29,16.04L321.28-230.69z"/>
			<path d="M359.25-373.55c7.25,0,13.15,5.9,13.15,13.15s-5.9,13.15-13.15,13.15c-0.04,0-0.09,0-0.13,0.02l-31.65-13.17
				l31.641-13.16C359.16-373.55,359.2-373.55,359.25-373.55z"/>
			<path d="M362.66-383.92c0,3.48-1.34,6.75-3.771,9.22l-1.659,0.69l-30.181,12.56l13.25-31.84c2.47-2.44,5.74-3.77,9.21-3.77
				c3.51,0,6.82,1.37,9.3,3.85C361.29-390.73,362.66-387.42,362.66-383.92z"/>
			<path d="M358.89-346.1c5.04,5.13,5.011,13.42-0.08,18.51c-2.479,2.48-5.779,3.85-9.3,3.85c-3.47,0-6.74-1.34-9.22-3.78
				l-13.24-31.83L358.89-346.1z"/>
			<path d="M326-358.93l13.17,31.67c-0.01,0.05-0.03,0.11-0.03,0.17C339.11-319.87,333.21-314,326-314
				c-7.22,0-13.11-5.87-13.14-13.09c0-0.06-0.021-0.11-0.04-0.16L326-358.93z"/>
			<path d="M326-414c7.21,0,13.08,5.84,13.14,13.04c-0.71,1.74-10.72,26.01-13.14,31.88c-2.42-5.87-12.43-30.14-13.15-31.88
				C312.91-408.16,318.79-414,326-414z"/>
			<path d="M311.7-393.29l13.25,31.84l-22.87-9.52l-8.97-3.73c-5.04-5.13-5.021-13.41,0.08-18.51c2.479-2.49,5.779-3.85,9.29-3.85
				C305.96-397.06,309.23-395.72,311.7-393.29z"/>
			<path d="M324.95-359.35l-13.24,31.83c-2.479,2.44-5.75,3.78-9.229,3.78c-3.511,0-6.811-1.37-9.29-3.85
				c-5.101-5.1-5.12-13.4-0.07-18.52L324.95-359.35z"/>
			<path d="M324.53-360.4l-31.65,13.16c-0.04-0.01-0.09-0.01-0.13-0.01c-7.25,0-13.15-5.9-13.15-13.15s5.9-13.15,13.15-13.15
				c0.04,0,0.08-0.01,0.12-0.02L324.53-360.4z"/>
			<path d="M231.75-60.23c0.23,0.94-0.36,1.9-1.31,2.13l-34.82,8.31l34.82,8.3c0.949,0.23,1.54,1.18,1.31,2.14
				c-0.19,0.8-0.92,1.35-1.72,1.35c-0.141,0-0.271-0.01-0.41-0.05l-37.19-8.87c-0.79,1.67-2.47,2.84-4.43,2.84s-3.65-1.17-4.42-2.84
				l-37.2,8.87c-0.14,0.04-0.28,0.05-0.41,0.05c-0.8,0-1.529-0.55-1.72-1.35c-0.23-0.96,0.36-1.91,1.3-2.14l34.83-8.3l-34.83-8.31
				c-0.939-0.23-1.53-1.19-1.3-2.13c0.23-0.96,1.18-1.54,2.13-1.32l36.311,8.67c-3.53-21.35-25.021-36.25-25.021-55.35
				c0-16.44,13.58-29.77,30.33-29.77s30.33,13.33,30.33,29.77c0,19.1-21.39,34-25.021,55.35l36.311-8.67
				C230.58-61.77,231.52-61.19,231.75-60.23z M208.55-107.67c0-11.35-9.2-20.55-20.55-20.55s-20.55,9.2-20.55,20.55
				c0,11.34,9.2,20.55,20.55,20.55S208.55-96.33,208.55-107.67z"/>
			<path d="M188-120.39c7.02,0,12.72,5.69,12.72,12.72c0,7.02-5.7,12.71-12.72,12.71c-7.03,0-12.72-5.69-12.72-12.71
				C175.28-114.7,180.98-120.39,188-120.39z M192.89-107.67c0-2.71-2.189-4.9-4.89-4.9s-4.89,2.19-4.89,4.9
				c0,2.69,2.189,4.88,4.89,4.88S192.89-104.98,192.89-107.67z"/>
			<path d="M168.23-211.02c-11.45-1.14-21.271-3.92-28.24-9.55c-1.351-1.1-1.76-2.17-1.891-4.35c-1.02-17.22,5.69-34.81,15.33-44.57
				c0.7-0.71,2.4-0.85,4.261-0.45c7,1.53,20.72,5.11,27.31,10.05c0.8,0.6,0.69,0.85,0.65,2.3c-0.521,18.97-6.19,32.79-13.66,44.81
				C171.37-211.77,169.67-210.87,168.23-211.02z M161.19-215.33c1.649,1.01,3.569,0.87,4.29-0.3c0.72-1.18-0.03-2.95-1.671-3.97
				c-1.649-1.01-3.569-0.87-4.29,0.31C158.79-218.12,159.54-216.34,161.19-215.33z M174.47-230.72c0.34-2.27,4.49-6.98,1.24-8.72
				c0.6,3.92-5.71,0.94-6.22,3.74C174.12-237.01,171.93-231.5,174.47-230.72z M174-243.46c0-1.39-1.57-2.5-3.5-2.5
				s-3.5,1.11-3.5,2.5c0,1.38,1.57,2.5,3.5,2.5S174-242.08,174-243.46z M168.48-229.63c0.72-1.18-0.03-2.95-1.671-3.97
				c-1.649-1.01-3.569-0.87-4.29,0.31c-0.729,1.17,0.021,2.95,1.671,3.96C165.84-228.32,167.76-228.46,168.48-229.63z M168-253.46
				c0-1.39-1.57-2.5-3.5-2.5s-3.5,1.11-3.5,2.5c0,1.38,1.57,2.5,3.5,2.5S168-252.08,168-253.46z M161-263.46
				c0-1.39-1.57-2.5-3.5-2.5s-3.5,1.11-3.5,2.5c0,1.38,1.57,2.5,3.5,2.5S161-262.08,161-263.46z M158.48-225.63
				c0.72-1.18-0.03-2.95-1.671-3.97c-1.649-1.01-3.569-0.87-4.29,0.31c-0.729,1.17,0.021,2.95,1.671,3.96
				C155.84-224.32,157.76-224.46,158.48-225.63z M151.48-235.63c0.72-1.18-0.03-2.95-1.671-3.97c-1.649-1.01-3.569-0.87-4.29,0.31
				c-0.729,1.17,0.021,2.95,1.671,3.96C148.84-234.32,150.76-234.46,151.48-235.63z M148.48-221.63c0.72-1.18-0.03-2.95-1.671-3.97
				c-1.649-1.01-3.569-0.87-4.29,0.31c-0.729,1.17,0.021,2.95,1.671,3.96C145.84-220.32,147.76-220.46,148.48-221.63z"/>
			<path d="M197.83-207.84c0,1.38,0.729,2.5,1.63,2.5s1.63-1.12,1.63-2.5c0-1.38-0.729-2.5-1.63-2.5
				C198.55-210.34,197.83-209.22,197.83-207.84z M204.6-187.37c0.54,0.89,2.12,0.91,3.54,0.06c1.42-0.86,2.13-2.27,1.601-3.16
				c-0.53-0.88-2.12-0.91-3.54-0.05C204.78-189.67,204.07-188.25,204.6-187.37z M191.91-220.37c0,1.38,0.729,2.49,1.63,2.49
				s1.63-1.11,1.63-2.49s-0.729-2.5-1.63-2.5S191.91-221.75,191.91-220.37z M188.65-214.5c0,1.38,0.729,2.49,1.63,2.49
				c0.899,0,1.63-1.11,1.63-2.49s-0.73-2.5-1.63-2.5C189.38-217,188.65-215.88,188.65-214.5z M196.2-204.47
				c-0.91,0-1.641,1.12-1.641,2.5c0,1.38,0.73,2.5,1.641,2.5c0.899,0,1.63-1.12,1.63-2.5C197.83-203.35,197.1-204.47,196.2-204.47z
				 M191.3-196.1c0,1.38,0.73,2.5,1.63,2.5c0.9,0,1.63-1.12,1.63-2.5s-0.729-2.5-1.63-2.5C192.03-198.6,191.3-197.48,191.3-196.1z
				 M195.46-184.96c-5.08-6.17-12.21-15.29-12.27-24.21c-0.04-7.63,5.859-15.47,10.26-22.39c2.18-3.43,6.79-4.93,12.16-6.25
				c4.09-1.01,11.189-2.96,13.699-2.5c8.431,1.55,18.36,19.82,18.69,27.4c0.29,6.94-10.77,21.88-13.75,23.67
				c-3.87,2.33-14.94,5.27-23.48,6.04C199.13-183.06,196.93-183.18,195.46-184.96z M187.02-211.13c-0.899,0-1.63,1.11-1.63,2.5
				c0,1.37,0.73,2.49,1.63,2.49c0.9,0,1.631-1.12,1.631-2.49C188.65-210.02,187.92-211.13,187.02-211.13z M229.97-202.86
				c1.42-0.86,2.141-2.27,1.601-3.16c-0.53-0.88-2.11-0.91-3.53-0.05c-1.42,0.85-2.14,2.26-1.6,3.15
				C226.97-202.03,228.55-202.01,229.97-202.86z M228.97-214.85c1.05-0.71,1.2-2.31,0.351-3.57c-0.86-1.25-2.41-1.7-3.45-0.98
				c-1.05,0.71-1.2,2.31-0.34,3.57C226.38-214.57,227.93-214.13,228.97-214.85z M220.56-229.6c1.051-0.71,1.2-2.31,0.341-3.57
				c-0.86-1.25-2.4-1.7-3.45-0.98c-1.05,0.71-1.2,2.31-0.34,3.57C217.97-229.33,219.51-228.88,220.56-229.6z M213.14-210.68
				c1.051-0.71,1.2-2.31,0.341-3.57c-0.851-1.26-2.4-1.7-3.44-0.99c-1.05,0.72-1.2,2.31-0.35,3.57
				C210.55-210.41,212.1-209.96,213.14-210.68z M211.84-206.68c-4.649,1.33-3.55-3.09-7.47-2.49c0.74,2.58-1.54,8.18,1.24,8.72
				C206.64-203.57,209.97-204.39,211.84-206.68z M204.72-225.43c1.05-0.71,1.2-2.31,0.351-3.57c-0.86-1.26-2.41-1.7-3.45-0.99
				c-1.05,0.72-1.2,2.31-0.34,3.57C202.13-225.16,203.68-224.71,204.72-225.43z"/>
			<path d="M203.61-349.55l-14.54-8.44l-0.021,35.23l30.681-17.71v-17.77l-15.061,8.7C204.34-349.36,203.94-349.36,203.61-349.55z
				 M220.8-377.55l-30.68,17.72l14.02,8.14l30.681-17.71L220.8-377.55z M190.12-397.7l30.68,17.71l14.021-8.14l-30.681-17.72
				L190.12-397.7z M156.25-340.47l30.69,17.71V-358l-1.061-1.83l1.36-1.37c0.2,0.19,0.46,0.31,0.76,0.31c0.58,0,1.06-0.48,1.06-1.06
				v-33.63c0-0.59-0.479-1.06-1.06-1.06c-0.3,0-0.56,0.12-0.76,0.31l-1.36-1.37l-14.02-8.15l1.06-1.83l15.08,8.76l15.61-9.07
				c0.33-0.19,0.729-0.19,1.06,0l32.8,18.93c0.33,0.19,0.53,0.54,0.53,0.92c0,0.38-0.2,0.73-0.53,0.92l-14.55,8.45l14.55,8.46
				c0.33,0.19,0.53,0.54,0.53,0.91c0,0.38-0.2,0.73-0.53,0.92l-15.62,9.02v19.6c0,0.38-0.199,0.73-0.52,0.92l-32.811,18.93
				c-0.02,0.01-0.05,0.02-0.079,0.03c-0.021,0.02-0.051,0.03-0.08,0.04c-0.12,0.04-0.24,0.07-0.36,0.07c-0.13,0-0.25-0.03-0.37-0.07
				c-0.03-0.01-0.06-0.02-0.09-0.04c-0.021-0.01-0.05-0.02-0.07-0.03l-32.8-18.93c-0.33-0.19-0.53-0.54-0.53-0.92v-0.61H156.25z"/>
			<path d="M138.53-370.31l14.56-8.46l-14.56-8.45c-0.33-0.19-0.53-0.54-0.53-0.92c0-0.38,0.2-0.73,0.53-0.92l32.8-18.93
				c0.33-0.19,0.729-0.19,1.06,0l0.53,0.31l-1.06,1.83l-30.681,17.72l14.021,8.14l30.68-17.71l1.36,1.37
				c-0.19,0.19-0.311,0.45-0.311,0.75v33.63c0,0.29,0.12,0.55,0.311,0.75l-1.36,1.37l-30.68-17.71l-14.03,8.14l30.69,17.71
				l14.02-8.14l1.061,1.83l-14.551,8.45c-0.159,0.1-0.34,0.15-0.529,0.15c-0.181,0-0.36-0.05-0.53-0.14l-15.08-8.71v17.78h-2.11v-19
				l-15.609-9.01c-0.33-0.19-0.53-0.54-0.53-0.91C138-369.77,138.2-370.12,138.53-370.31z"/>
			<path fill="#4F2421" d="M91.8,58.62c4.53,0,8.2,3.68,8.2,8.21s-3.67,8.2-8.21,8.2c-2.13,0-4.07-0.82-5.53-2.16L63.4,84.41
				c0.029,0.29,0.05,0.58,0.05,0.87c0,4.529-3.67,8.21-8.2,8.21c-4.06,0-7.42-2.95-8.08-6.811L15.18,80.53
				c-1.44,2.34-4.02,3.91-6.98,3.91c-4.53,0-8.2-3.671-8.2-8.2c0-4.271,3.25-7.771,7.41-8.17l12.64-46.71
				c-2.06-1.49-3.4-3.91-3.4-6.64c0-4.53,3.67-8.21,8.2-8.21c4.05,0,7.41,2.95,8.07,6.81l31.99,6.15c1.45-2.34,4.03-3.91,6.979-3.91
				c4.53,0,8.21,3.67,8.21,8.2c0,2.24-0.899,4.27-2.359,5.75l9.72,21.04c0.01,0.01,0.01,0.01,0.01,0.01l3.74,8.101
				C91.4,58.64,91.6,58.62,91.8,58.62z M85.95,61.08l-2.59-5.6l-11.37,4.59l12.83,2.47C85.14,62.01,85.52,61.52,85.95,61.08z
				 M60.78,79.24l22.14-11.17l-19.03-3.66L60.04,78.64C60.3,78.83,60.55,79.03,60.78,79.24z M79.87,47.92l-7.26-15.71L68.89,45.93
				L79.87,47.92z M63.17,44.9l3.93-14.49c-1.71-1.23-2.909-3.1-3.279-5.25l-31.99-6.15c-0.33,0.53-0.7,1.02-1.14,1.45l9.36,20.25
				L63.17,44.9z M54.46,77.12l3.72-13.76l-6.529-1.15c-1.46,2.271-4,3.771-6.9,3.771c-2.13,0-4.07-0.82-5.53-2.16L17.08,75
				l31.19,5.99C49.58,78.86,51.83,77.37,54.46,77.12z M13.74,70.2l21.53-10.88l-18.6-3.28L13,69.59
				C13.26,69.78,13.5,69.98,13.74,70.2z M34.15,41.74l-8.59-18.58l-6.68,24.72L34.15,41.74z"/>
			<path d="M75-240c13.81,0,25,11.19,25,25c0,13.8-11.19,24.99-25,24.99c-6.23,0-11.92-1.99-16.3-5.99H41.29
				c-4.37,4-10.06,6.01-16.29,6.01c-13.81,0-25-11.24-25-25.05S11.19-240,25-240h23v1h4v-1H75z M85.4-225.48
				c0-2.87-2.33-5.2-5.2-5.2s-5.2,2.33-5.2,5.2s2.33,5.2,5.2,5.2S85.4-222.61,85.4-225.48z M75-204.68c0-2.88-2.33-5.2-5.19-5.2
				c-2.869,0-5.199,2.32-5.199,5.2c0,2.87,2.33,5.19,5.199,5.19C72.67-199.49,75-201.81,75-204.68z M41-210v-10H30v-11H20v11H10v10
				h10v11h10v-11H41z"/>
			<path d="M87.94-387.37v70.71c0,1.46-1.19,2.66-2.65,2.66H14.57c-1.45,0-2.59-1.19-2.51-2.65l5.03-94.69
				c0.08-1.47,1.33-2.66,2.8-2.66h9.4c1.46,0,2.78,1.19,2.94,2.64l4.75,44.03c0.15,1.45,1.12,1.8,2.15,0.76l21.601-21.58
				c1.029-1.03,1.869-0.68,1.869,0.78v20.03c0,1.46,0.851,1.81,1.881,0.77l21.59-21.58C87.1-389.18,87.94-388.83,87.94-387.37z
				 M62.6-329.33v-20.03c0-1.46-1.189-2.66-2.649-2.66H39.92c-1.47,0-2.66,1.2-2.66,2.66v20.03c0,1.46,1.19,2.66,2.66,2.66h20.03
				C61.41-326.67,62.6-327.87,62.6-329.33z"/>
			<path d="M62.44-69.98l3.13-3.88c0.43-0.53,0.739-0.79,0.91-0.79c0.21,0,0.189,0.42-0.11,1.24l-8.72,23.52
				c-0.54,1.46-1.7,1.6-2.57,0.31l-7.06-10.51c-0.87-1.29-2.63-1.62-3.9-0.72L22.49-45.67c-1.28,0.89-2.6,0.38-2.94-1.14
				L1.12-128.92c-0.34-1.52,0.55-2.25,1.98-1.63L97.9-89c1.43,0.62,1.399,1.56-0.07,2.09l-27.8,9.89c-0.84,0.3-1.92,0.32-2.92,0.1
				c-0.761-0.17-1.471-0.47-2-0.88l-47.76-36.98c-1.24-0.95-1.45-0.74-0.48,0.48l35.24,44.44c0.97,1.22,3.04,2.19,4.6,2.16
				l1.12-0.02C59.39-67.75,61.46-68.77,62.44-69.98z"/>
			<rect x="48" y="-240" width="4" height="1"/>
			<rect x="48" y="-290" width="4" height="50"/>
			<path d="M-134.62-350.5l2.51,1c1.57,0.63,3.44,0.62,5.16-0.1c1.7-0.7,2.9-2.08,3.57-3.64c0.63-1.58,0.77-3.41,0.06-5.12
				c-0.72-1.72-2.02-3.05-3.58-3.72l-2.48-1.06l-0.73-0.31c-0.44-0.2-0.82-0.55-1.02-1.04c-0.41-0.98,0.04-2.09,1.01-2.49l0.14-0.06
				c2.92-1.02,6.18-0.94,9.26,0.38c4.48,1.91,7.44,6.02,8.11,10.57l7.08,2.92l17.53,7.26l17.53-7.26l7.08-2.92
				c0.67-4.55,3.63-8.66,8.11-10.57c3.09-1.32,6.34-1.4,9.26-0.38l0.15,0.06c0.96,0.4,1.41,1.51,1,2.49
				c-0.2,0.49-0.58,0.85-1.02,1.05l-0.73,0.3l-2.48,1.06c-1.56,0.67-2.86,2-3.58,3.72c-0.7,1.71-0.57,3.54,0.06,5.12
				c0.67,1.56,1.87,2.94,3.57,3.65c1.72,0.71,3.59,0.73,5.16,0.09l2.51-1l0.73-0.3c0.45-0.17,0.97-0.18,1.46,0.02
				c0.98,0.4,1.45,1.51,1.05,2.47l-0.07,0.15c-1.34,2.78-3.7,5.02-6.81,6.28c-4.52,1.81-9.52,1.01-13.22-1.74l-7.06,2.92l-5.07,2.1
				l9.93,4.11c1.58,0.66,2.88,1.98,3.59,3.68c1.41,3.42-0.21,7.32-3.62,8.73c-1.7,0.71-3.56,0.72-5.14,0.07L-88-331.29l-22.39,9.27
				c-1.58,0.66-3.44,0.65-5.14-0.06c-3.42-1.41-5.03-5.31-3.62-8.73c0.71-1.7,2.01-3.02,3.59-3.68l9.93-4.11l-5.07-2.1l-7.07-2.92
				c-3.69,2.75-8.69,3.55-13.21,1.74c-3.11-1.26-5.47-3.5-6.82-6.28l-0.06-0.15c-0.39-0.96,0.07-2.07,1.05-2.47
				c0.49-0.2,1.01-0.2,1.46-0.02L-134.62-350.5z M-62.74-326.3c1.22-0.51,1.8-1.91,1.29-3.12c-0.5-1.22-1.9-1.8-3.11-1.29
				c-1.22,0.5-1.8,1.9-1.29,3.11C-65.35-326.38-63.95-325.8-62.74-326.3z M-110.15-327.6c0.51-1.21-0.07-2.61-1.29-3.11
				c-1.21-0.51-2.61,0.07-3.11,1.29c-0.51,1.21,0.07,2.61,1.29,3.11C-112.05-325.8-110.65-326.38-110.15-327.6z"/>
			<path d="M-65.17-253.24c15.03,0,27.19,12.18,27.19,27.21c0,15.02-12.2,27.21-27.23,27.21c-5.77,0-11.13-1.82-15.52-4.88
				c8.07-3.26,13.73-11.14,13.73-20.37c0-0.02,0-0.04,0-0.06v-4.91l7.54-3.66l-7.42-3.67c-0.33-4.27-3.54-7.72-7.7-8.41
				c-0.5-0.09-1.01-0.14-1.53-0.14c-0.53,0-1.05,0.05-1.55,0.14c-1.23,0.21-2.37,0.67-3.38,1.31c-1,0.62-1.86,1.43-2.54,2.38
				c-0.03,0.02-0.05,0.07-0.07,0.09c-0.05,0.07-27.27,39-27.27,39c0.04,0,6.67,0,13.06,0c-3.84,2-8.24,3.23-12.91,3.23
				c-15.03,0-27.21-12.23-27.21-27.26c0-15.03,12.18-27.21,27.21-27.21c9.55,0,17.94,4.94,22.8,12.39
				C-83.12-248.3-74.73-253.24-65.17-253.24z"/>
			<path d="M-58.88-388c-0.97,4-2.64,8.27-4.53,12.33c6.66-1.09,9.92-5.15,9.99-7.96C-53.37-386-55.42-388-58.88-388z M-58.1-393.13
				c6.81,1.24,9.23,5.56,9.14,9.25c-0.14,5.91-6.46,11.93-16.86,12.41c-2.52,4.55-5.09,8.07-6.8,9c-3.84,2.09-8.98,3.34-15.38,3.34
				s-11.27-0.83-15.38-3.34c-4.3-2.62-14.64-22.05-14.64-32.7c0-3.09,0-11.29,30.02-11.29s30.02,8.2,30.02,11.29
				C-57.98-394.52-58.03-393.84-58.1-393.13z M-64.68-395.17c0-2.54-10.44-4.6-23.32-4.6s-23.32,2.06-23.32,4.6
				c0,2.53,10.44,4.59,23.32,4.59S-64.68-392.64-64.68-395.17z"/>
			<path d="M-75.04-237.71c0.76,0,1.37,0.61,1.37,1.37c0,0.75-0.61,1.36-1.37,1.36c-0.75,0-1.36-0.61-1.36-1.36
				C-76.4-237.1-75.79-237.71-75.04-237.71z"/>
			<path d="M-118.02,30.57v52.07h74.47V30.57H-118.02z M-132.45,27.79h88.9v-0.93h-51.28c-1.85,0-3.35-1.5-3.35-3.35v-1.04
				c0-0.2-0.11-0.34-0.17-0.41c-0.06-0.06-0.2-0.16-0.4-0.16l-14.12,0.04c-0.32,0-0.58,0.27-0.58,0.59v1.04
				c0,0.89-0.35,1.74-0.99,2.37c-0.63,0.63-1.47,0.98-2.36,0.98c-0.01,0-0.01,0-0.01,0l-15.64-0.05V27.79z M-120.8,30.57h-11.65
				v52.07h11.65V30.57z M-132.45,24.09l15.65,0.05c0.2,0,0.34-0.1,0.4-0.17c0.07-0.06,0.17-0.2,0.17-0.4v-1.04
				c0-1.85,1.5-3.36,3.35-3.36l14.12-0.05c0.91-0.04,1.73,0.35,2.37,0.98c0.64,0.63,0.99,1.48,0.99,2.37v1.04
				c0,0.31,0.26,0.58,0.57,0.58h51.28v-6.73h-88.9V24.09z M-38,14.58v70.84c0,1.53-1.24,2.771-2.78,2.771h-94.44
				c-1.54,0-2.78-1.24-2.78-2.771V14.58c0-1.53,1.24-2.77,2.78-2.77h94.44C-39.24,11.81-38,13.05-38,14.58z"/>
			<path d="M-119.41,18.54c1.08,0,1.97,0.88,1.97,1.96c0,1.09-0.89,1.97-1.97,1.97c-1.09,0-1.97-0.88-1.97-1.97
				C-121.38,19.42-120.5,18.54-119.41,18.54z"/>
			<path d="M-124.39,18.54c1.09,0,1.97,0.88,1.97,1.96c0,1.09-0.88,1.97-1.97,1.97c-1.08,0-1.96-0.88-1.96-1.97
				C-126.35,19.42-125.47,18.54-124.39,18.54z"/>
			<path d="M-129.36,18.54c1.08,0,1.96,0.88,1.96,1.96c0,1.09-0.88,1.97-1.96,1.97c-1.09,0-1.97-0.88-1.97-1.97
				C-131.33,19.42-130.45,18.54-129.36,18.54z"/>
			<path d="M-132.4-73.28c0.03,0.18,0.11,0.36,0.11,0.56c0,1.54-1.26,2.8-2.81,2.8c-1.55,0-2.8-1.26-2.8-2.8
				c0-1.56,1.25-2.81,2.8-2.81c0.79,0,1.49,0.33,2.01,0.85l37.32-19.91l-4.23-7.31l16.52-9.57l4.57,7.88l26.94-14.38
				c-0.04-0.19-0.12-0.36-0.12-0.55c0-1.55,1.26-2.81,2.81-2.81c1.55,0,2.81,1.26,2.81,2.81s-1.26,2.8-2.81,2.8
				c-0.78,0-1.5-0.33-2-0.85l-22.91,12.23c11.13-3.57,23.22-5.08,36.19-4.6v3.11c-14.09-0.54-27.07,1.38-38.89,5.73l2.99,5.15
				l-16.53,9.58l-3.59-6.2C-114.54-78.25-127.79-57.1-134.69-38H-138c6.21-17.67,17.77-37.21,35.34-51.16L-132.4-73.28z"/>
		</g>
		<g>
		</g>
	</g>
</g>
</svg>
