<?xml version="1.0" encoding="utf-8"?>
<!-- Generator: Adobe Illustrator 16.0.0, SVG Export Plug-In . SVG Version: 6.00 Build 0)  -->
<!DOCTYPE svg PUBLIC "-//W3C//DTD SVG 1.1//EN" "http://www.w3.org/Graphics/SVG/1.1/DTD/svg11.dtd">
<svg version="1.1" id="Layer_1" xmlns="http://www.w3.org/2000/svg" xmlns:xlink="http://www.w3.org/1999/xlink" x="0px" y="0px"
	 width="100px" height="100px" viewBox="0 0 100 100" enable-background="new 0 0 100 100" xml:space="preserve">
<g id="XMLID_1_">
	<g>
		<path fill="#4F2421" d="M95,34.67v44.29c0,3.14-2.54,5.68-5.68,5.68H10.68C7.54,84.64,5,82.1,5,78.96V34.67
			c0-3.14,2.54-5.68,5.68-5.68h18.88v-7.95c0-3.13,2.54-5.68,5.68-5.68h29.52c3.141,0,5.681,2.55,5.681,5.68v7.95h18.88
			C92.46,28.99,95,31.53,95,34.67z M64.09,28.99v-3.58c0-2.33-0.76-4.23-3.1-4.23H39.01c-2.34,0-3.1,1.9-3.1,4.23v3.58H64.09z"/>
	</g>
	<g>
	</g>
</g>
</svg>
